<mxfile host="app.diagrams.net" agent="Mozilla/5.0 (X11; Ubuntu; Linux x86_64; rv:143.0) Gecko/20100101 Firefox/143.0" version="28.2.5">
  <diagram name="Seite-1" id="tv3RCUC1lsHie5otSo7a">
    <mxGraphModel dx="1426" dy="826" grid="1" gridSize="10" guides="1" tooltips="1" connect="1" arrows="1" fold="1" page="1" pageScale="1" pageWidth="827" pageHeight="1169" math="0" shadow="0">
      <root>
        <mxCell id="0" />
        <mxCell id="1" parent="0" />
        <mxCell id="R6EGx2aFgqs3BERjV3u7-110" value="&amp;lt;&amp;lt;interface&amp;gt;&amp;gt;&lt;br&gt;&lt;b&gt;ReplicService&lt;/b&gt;&lt;div&gt;&lt;br/&gt;&lt;/div&gt;" style="swimlane;fontStyle=0;align=center;verticalAlign=top;childLayout=stackLayout;horizontal=1;startSize=40;horizontalStack=0;resizeParent=1;resizeParentMax=0;resizeLast=0;collapsible=0;marginBottom=0;html=1;whiteSpace=wrap;" vertex="1" parent="1">
          <mxGeometry x="260" y="210" width="500" height="108" as="geometry" />
        </mxCell>
        <mxCell id="R6EGx2aFgqs3BERjV3u7-115" value="" style="line;strokeWidth=1;fillColor=none;align=left;verticalAlign=middle;spacingTop=-1;spacingLeft=3;spacingRight=3;rotatable=0;labelPosition=right;points=[];portConstraint=eastwest;" vertex="1" parent="R6EGx2aFgqs3BERjV3u7-110">
          <mxGeometry y="40" width="500" height="8" as="geometry" />
        </mxCell>
        <mxCell id="R6EGx2aFgqs3BERjV3u7-117" value="getReplics(String, ReplicState[], ReplicSortMode, SortDirection): Observable&amp;lt;Replic[]&amp;gt;" style="text;html=1;strokeColor=none;fillColor=none;align=left;verticalAlign=middle;spacingLeft=4;spacingRight=4;overflow=hidden;rotatable=0;points=[[0,0.5],[1,0.5]];portConstraint=eastwest;whiteSpace=wrap;" vertex="1" parent="R6EGx2aFgqs3BERjV3u7-110">
          <mxGeometry y="48" width="500" height="20" as="geometry" />
        </mxCell>
        <mxCell id="R6EGx2aFgqs3BERjV3u7-118" value="validateReplicPassword(string, string): Observable&amp;lt;boolean, null&amp;gt;" style="text;html=1;strokeColor=none;fillColor=none;align=left;verticalAlign=middle;spacingLeft=4;spacingRight=4;overflow=hidden;rotatable=0;points=[[0,0.5],[1,0.5]];portConstraint=eastwest;whiteSpace=wrap;" vertex="1" parent="R6EGx2aFgqs3BERjV3u7-110">
          <mxGeometry y="68" width="500" height="20" as="geometry" />
        </mxCell>
        <mxCell id="R6EGx2aFgqs3BERjV3u7-119" value="getReplic(string): Observable&amp;lt;Replic | null&amp;gt;" style="text;html=1;strokeColor=none;fillColor=none;align=left;verticalAlign=middle;spacingLeft=4;spacingRight=4;overflow=hidden;rotatable=0;points=[[0,0.5],[1,0.5]];portConstraint=eastwest;whiteSpace=wrap;" vertex="1" parent="R6EGx2aFgqs3BERjV3u7-110">
          <mxGeometry y="88" width="500" height="20" as="geometry" />
        </mxCell>
        <mxCell id="R6EGx2aFgqs3BERjV3u7-120" value="&lt;div&gt;&amp;lt;&amp;lt;interface&amp;gt;&amp;gt;&lt;/div&gt;&lt;div&gt;&lt;b&gt;AccountService&lt;/b&gt;&lt;/div&gt;&lt;div&gt;&lt;br&gt;&lt;/div&gt;" style="swimlane;fontStyle=0;align=center;verticalAlign=top;childLayout=stackLayout;horizontal=1;startSize=40;horizontalStack=0;resizeParent=1;resizeParentMax=0;resizeLast=0;collapsible=0;marginBottom=0;html=1;whiteSpace=wrap;" vertex="1" parent="1">
          <mxGeometry x="260" y="350" width="540" height="170" as="geometry" />
        </mxCell>
        <mxCell id="R6EGx2aFgqs3BERjV3u7-121" value="" style="line;strokeWidth=1;fillColor=none;align=left;verticalAlign=middle;spacingTop=-1;spacingLeft=3;spacingRight=3;rotatable=0;labelPosition=right;points=[];portConstraint=eastwest;" vertex="1" parent="R6EGx2aFgqs3BERjV3u7-120">
          <mxGeometry y="40" width="540" height="8" as="geometry" />
        </mxCell>
        <mxCell id="R6EGx2aFgqs3BERjV3u7-122" value="getAccountsFull(string, AccountState[], AccountSortMode, SortDirection): Observable&amp;lt;Account[]&amp;gt;" style="text;html=1;strokeColor=none;fillColor=none;align=left;verticalAlign=middle;spacingLeft=4;spacingRight=4;overflow=hidden;rotatable=0;points=[[0,0.5],[1,0.5]];portConstraint=eastwest;whiteSpace=wrap;" vertex="1" parent="R6EGx2aFgqs3BERjV3u7-120">
          <mxGeometry y="48" width="540" height="22" as="geometry" />
        </mxCell>
        <mxCell id="R6EGx2aFgqs3BERjV3u7-125" value="getPartialAccount(string): Observable&amp;lt;PartialAccount&amp;gt;" style="text;html=1;strokeColor=none;fillColor=none;align=left;verticalAlign=middle;spacingLeft=4;spacingRight=4;overflow=hidden;rotatable=0;points=[[0,0.5],[1,0.5]];portConstraint=eastwest;whiteSpace=wrap;" vertex="1" parent="R6EGx2aFgqs3BERjV3u7-120">
          <mxGeometry y="70" width="540" height="20" as="geometry" />
        </mxCell>
        <mxCell id="R6EGx2aFgqs3BERjV3u7-126" value="getAuthAccount(): Observable&amp;lt;Account | null&amp;gt;" style="text;html=1;strokeColor=none;fillColor=none;align=left;verticalAlign=middle;spacingLeft=4;spacingRight=4;overflow=hidden;rotatable=0;points=[[0,0.5],[1,0.5]];portConstraint=eastwest;whiteSpace=wrap;" vertex="1" parent="R6EGx2aFgqs3BERjV3u7-120">
          <mxGeometry y="90" width="540" height="20" as="geometry" />
        </mxCell>
        <mxCell id="R6EGx2aFgqs3BERjV3u7-145" value="createAccount(string, string, string, boolean): Observable&amp;lt;Account, Error&amp;gt;" style="text;html=1;strokeColor=none;fillColor=none;align=left;verticalAlign=middle;spacingLeft=4;spacingRight=4;overflow=hidden;rotatable=0;points=[[0,0.5],[1,0.5]];portConstraint=eastwest;whiteSpace=wrap;" vertex="1" parent="R6EGx2aFgqs3BERjV3u7-120">
          <mxGeometry y="110" width="540" height="20" as="geometry" />
        </mxCell>
        <mxCell id="R6EGx2aFgqs3BERjV3u7-146" value="updateUsername(string): Observable&amp;lt;Account, UpdateUsernameError&amp;gt;" style="text;html=1;strokeColor=none;fillColor=none;align=left;verticalAlign=middle;spacingLeft=4;spacingRight=4;overflow=hidden;rotatable=0;points=[[0,0.5],[1,0.5]];portConstraint=eastwest;whiteSpace=wrap;" vertex="1" parent="R6EGx2aFgqs3BERjV3u7-120">
          <mxGeometry y="130" width="540" height="20" as="geometry" />
        </mxCell>
        <mxCell id="R6EGx2aFgqs3BERjV3u7-160" value="updateEmail(string): Observable&amp;lt;Account, UpdateEmailError&amp;gt;" style="text;html=1;strokeColor=none;fillColor=none;align=left;verticalAlign=middle;spacingLeft=4;spacingRight=4;overflow=hidden;rotatable=0;points=[[0,0.5],[1,0.5]];portConstraint=eastwest;whiteSpace=wrap;" vertex="1" parent="R6EGx2aFgqs3BERjV3u7-120">
          <mxGeometry y="150" width="540" height="20" as="geometry" />
        </mxCell>
        <mxCell id="R6EGx2aFgqs3BERjV3u7-127" value="&lt;div&gt;&amp;lt;&amp;lt;interface&amp;gt;&amp;gt;&lt;/div&gt;&lt;div&gt;&lt;b&gt;ReportService&lt;/b&gt;&lt;/div&gt;&lt;div&gt;&lt;br&gt;&lt;/div&gt;" style="swimlane;fontStyle=0;align=center;verticalAlign=top;childLayout=stackLayout;horizontal=1;startSize=40;horizontalStack=0;resizeParent=1;resizeParentMax=0;resizeLast=0;collapsible=0;marginBottom=0;html=1;whiteSpace=wrap;" vertex="1" parent="1">
          <mxGeometry x="260" y="540" width="410" height="110" as="geometry" />
        </mxCell>
        <mxCell id="R6EGx2aFgqs3BERjV3u7-128" value="" style="line;strokeWidth=1;fillColor=none;align=left;verticalAlign=middle;spacingTop=-1;spacingLeft=3;spacingRight=3;rotatable=0;labelPosition=right;points=[];portConstraint=eastwest;" vertex="1" parent="R6EGx2aFgqs3BERjV3u7-127">
          <mxGeometry y="40" width="410" height="8" as="geometry" />
        </mxCell>
        <mxCell id="R6EGx2aFgqs3BERjV3u7-129" value="getReports(string, ReportSortMode, SortDirection): Observable&amp;lt;Report[]&amp;gt;" style="text;html=1;strokeColor=none;fillColor=none;align=left;verticalAlign=middle;spacingLeft=4;spacingRight=4;overflow=hidden;rotatable=0;points=[[0,0.5],[1,0.5]];portConstraint=eastwest;whiteSpace=wrap;" vertex="1" parent="R6EGx2aFgqs3BERjV3u7-127">
          <mxGeometry y="48" width="410" height="22" as="geometry" />
        </mxCell>
        <mxCell id="R6EGx2aFgqs3BERjV3u7-131" value="markReportClosed(string): Observable&amp;lt;null | Error&amp;gt;" style="text;html=1;strokeColor=none;fillColor=none;align=left;verticalAlign=middle;spacingLeft=4;spacingRight=4;overflow=hidden;rotatable=0;points=[[0,0.5],[1,0.5]];portConstraint=eastwest;whiteSpace=wrap;" vertex="1" parent="R6EGx2aFgqs3BERjV3u7-127">
          <mxGeometry y="70" width="410" height="20" as="geometry" />
        </mxCell>
        <mxCell id="R6EGx2aFgqs3BERjV3u7-132" value="markReportReviewed(string): Observable&amp;lt;null | Error&amp;gt;" style="text;html=1;strokeColor=none;fillColor=none;align=left;verticalAlign=middle;spacingLeft=4;spacingRight=4;overflow=hidden;rotatable=0;points=[[0,0.5],[1,0.5]];portConstraint=eastwest;whiteSpace=wrap;" vertex="1" parent="R6EGx2aFgqs3BERjV3u7-127">
          <mxGeometry y="90" width="410" height="20" as="geometry" />
        </mxCell>
        <mxCell id="R6EGx2aFgqs3BERjV3u7-133" value="&lt;div&gt;&amp;lt;&amp;lt;interface&amp;gt;&amp;gt;&lt;/div&gt;&lt;div&gt;&lt;b&gt;ServerConfigService&lt;/b&gt;&lt;/div&gt;&lt;div&gt;&lt;br&gt;&lt;/div&gt;" style="swimlane;fontStyle=0;align=center;verticalAlign=top;childLayout=stackLayout;horizontal=1;startSize=40;horizontalStack=0;resizeParent=1;resizeParentMax=0;resizeLast=0;collapsible=0;marginBottom=0;html=1;whiteSpace=wrap;" vertex="1" parent="1">
          <mxGeometry x="260" y="680" width="370" height="230" as="geometry" />
        </mxCell>
        <mxCell id="R6EGx2aFgqs3BERjV3u7-134" value="" style="line;strokeWidth=1;fillColor=none;align=left;verticalAlign=middle;spacingTop=-1;spacingLeft=3;spacingRight=3;rotatable=0;labelPosition=right;points=[];portConstraint=eastwest;" vertex="1" parent="R6EGx2aFgqs3BERjV3u7-133">
          <mxGeometry y="40" width="370" height="8" as="geometry" />
        </mxCell>
        <mxCell id="R6EGx2aFgqs3BERjV3u7-135" value="getServerConfig(): ServerConfig" style="text;html=1;strokeColor=none;fillColor=none;align=left;verticalAlign=middle;spacingLeft=4;spacingRight=4;overflow=hidden;rotatable=0;points=[[0,0.5],[1,0.5]];portConstraint=eastwest;whiteSpace=wrap;" vertex="1" parent="R6EGx2aFgqs3BERjV3u7-133">
          <mxGeometry y="48" width="370" height="22" as="geometry" />
        </mxCell>
        <mxCell id="R6EGx2aFgqs3BERjV3u7-136" value="setCreateReplicsGroup(AuthUserGroup): Observable&amp;lt;null | Error&amp;gt;" style="text;html=1;strokeColor=none;fillColor=none;align=left;verticalAlign=middle;spacingLeft=4;spacingRight=4;overflow=hidden;rotatable=0;points=[[0,0.5],[1,0.5]];portConstraint=eastwest;whiteSpace=wrap;" vertex="1" parent="R6EGx2aFgqs3BERjV3u7-133">
          <mxGeometry y="70" width="370" height="20" as="geometry" />
        </mxCell>
        <mxCell id="R6EGx2aFgqs3BERjV3u7-137" value="setAccessReplicsGroup(AuthUserGroup): Observable&amp;lt;null | Error&amp;gt;" style="text;html=1;strokeColor=none;fillColor=none;align=left;verticalAlign=middle;spacingLeft=4;spacingRight=4;overflow=hidden;rotatable=0;points=[[0,0.5],[1,0.5]];portConstraint=eastwest;whiteSpace=wrap;" vertex="1" parent="R6EGx2aFgqs3BERjV3u7-133">
          <mxGeometry y="90" width="370" height="20" as="geometry" />
        </mxCell>
        <mxCell id="R6EGx2aFgqs3BERjV3u7-138" value="setCreateReportGroup(AuthUserGroup): Observable&amp;lt;null | Error&amp;gt;" style="text;html=1;strokeColor=none;fillColor=none;align=left;verticalAlign=middle;spacingLeft=4;spacingRight=4;overflow=hidden;rotatable=0;points=[[0,0.5],[1,0.5]];portConstraint=eastwest;whiteSpace=wrap;" vertex="1" parent="R6EGx2aFgqs3BERjV3u7-133">
          <mxGeometry y="110" width="370" height="20" as="geometry" />
        </mxCell>
        <mxCell id="R6EGx2aFgqs3BERjV3u7-139" value="setReplicLimit(ReplicLimitConfig): Observable&amp;lt;null | Error&amp;gt;" style="text;html=1;strokeColor=none;fillColor=none;align=left;verticalAlign=middle;spacingLeft=4;spacingRight=4;overflow=hidden;rotatable=0;points=[[0,0.5],[1,0.5]];portConstraint=eastwest;whiteSpace=wrap;" vertex="1" parent="R6EGx2aFgqs3BERjV3u7-133">
          <mxGeometry y="130" width="370" height="20" as="geometry" />
        </mxCell>
        <mxCell id="R6EGx2aFgqs3BERjV3u7-140" value="&lt;div&gt;setReplicLimit(ReplicLimitConfig | null): Observable&amp;lt;null | Error&amp;gt;&lt;/div&gt;" style="text;html=1;strokeColor=none;fillColor=none;align=left;verticalAlign=middle;spacingLeft=4;spacingRight=4;overflow=hidden;rotatable=0;points=[[0,0.5],[1,0.5]];portConstraint=eastwest;whiteSpace=wrap;" vertex="1" parent="R6EGx2aFgqs3BERjV3u7-133">
          <mxGeometry y="150" width="370" height="20" as="geometry" />
        </mxCell>
        <mxCell id="R6EGx2aFgqs3BERjV3u7-142" value="setAllowSignup(boolean): Observable&amp;lt;null | Error&amp;gt;" style="text;html=1;strokeColor=none;fillColor=none;align=left;verticalAlign=middle;spacingLeft=4;spacingRight=4;overflow=hidden;rotatable=0;points=[[0,0.5],[1,0.5]];portConstraint=eastwest;whiteSpace=wrap;" vertex="1" parent="R6EGx2aFgqs3BERjV3u7-133">
          <mxGeometry y="170" width="370" height="20" as="geometry" />
        </mxCell>
        <mxCell id="R6EGx2aFgqs3BERjV3u7-143" value="restart(): Observable&amp;lt;null | Error&amp;gt;" style="text;html=1;strokeColor=none;fillColor=none;align=left;verticalAlign=middle;spacingLeft=4;spacingRight=4;overflow=hidden;rotatable=0;points=[[0,0.5],[1,0.5]];portConstraint=eastwest;whiteSpace=wrap;" vertex="1" parent="R6EGx2aFgqs3BERjV3u7-133">
          <mxGeometry y="190" width="370" height="20" as="geometry" />
        </mxCell>
        <mxCell id="R6EGx2aFgqs3BERjV3u7-144" value="shutdown(): Observable&amp;lt;null | Error&amp;gt;" style="text;html=1;strokeColor=none;fillColor=none;align=left;verticalAlign=middle;spacingLeft=4;spacingRight=4;overflow=hidden;rotatable=0;points=[[0,0.5],[1,0.5]];portConstraint=eastwest;whiteSpace=wrap;" vertex="1" parent="R6EGx2aFgqs3BERjV3u7-133">
          <mxGeometry y="210" width="370" height="20" as="geometry" />
        </mxCell>
        <mxCell id="R6EGx2aFgqs3BERjV3u7-155" style="edgeStyle=orthogonalEdgeStyle;rounded=0;orthogonalLoop=1;jettySize=auto;html=1;endArrow=block;endFill=0;" edge="1" parent="1" source="R6EGx2aFgqs3BERjV3u7-147" target="R6EGx2aFgqs3BERjV3u7-152">
          <mxGeometry relative="1" as="geometry" />
        </mxCell>
        <mxCell id="R6EGx2aFgqs3BERjV3u7-147" value="&amp;lt;&amp;lt;interface&amp;gt;&amp;gt;&lt;br&gt;&lt;b&gt;UpdateUsernameError&lt;/b&gt;&lt;div&gt;&lt;br&gt;&lt;/div&gt;" style="swimlane;fontStyle=0;align=center;verticalAlign=top;childLayout=stackLayout;horizontal=1;startSize=40;horizontalStack=0;resizeParent=1;resizeParentMax=0;resizeLast=0;collapsible=0;marginBottom=0;html=1;whiteSpace=wrap;" vertex="1" parent="1">
          <mxGeometry x="30" y="250" width="204" height="68" as="geometry" />
        </mxCell>
        <mxCell id="R6EGx2aFgqs3BERjV3u7-148" value="" style="line;strokeWidth=1;fillColor=none;align=left;verticalAlign=middle;spacingTop=-1;spacingLeft=3;spacingRight=3;rotatable=0;labelPosition=right;points=[];portConstraint=eastwest;" vertex="1" parent="R6EGx2aFgqs3BERjV3u7-147">
          <mxGeometry y="40" width="204" height="8" as="geometry" />
        </mxCell>
        <mxCell id="R6EGx2aFgqs3BERjV3u7-151" value="&lt;div align=&quot;center&quot;&gt;&lt;b&gt;USERNAME_USED&lt;/b&gt;&lt;/div&gt;" style="text;html=1;strokeColor=none;fillColor=none;align=center;verticalAlign=middle;spacingLeft=4;spacingRight=4;overflow=hidden;rotatable=0;points=[[0,0.5],[1,0.5]];portConstraint=eastwest;whiteSpace=wrap;" vertex="1" parent="R6EGx2aFgqs3BERjV3u7-147">
          <mxGeometry y="48" width="204" height="20" as="geometry" />
        </mxCell>
        <mxCell id="R6EGx2aFgqs3BERjV3u7-152" value="&amp;lt;&amp;lt;interface&amp;gt;&amp;gt;&lt;br&gt;&lt;b&gt;Error&lt;/b&gt;&lt;div&gt;&lt;br&gt;&lt;/div&gt;" style="swimlane;fontStyle=0;align=center;verticalAlign=top;childLayout=stackLayout;horizontal=1;startSize=40;horizontalStack=0;resizeParent=1;resizeParentMax=0;resizeLast=0;collapsible=0;marginBottom=0;html=1;whiteSpace=wrap;" vertex="1" parent="1">
          <mxGeometry x="30" y="360" width="204" height="120" as="geometry" />
        </mxCell>
        <mxCell id="R6EGx2aFgqs3BERjV3u7-153" value="" style="line;strokeWidth=1;fillColor=none;align=left;verticalAlign=middle;spacingTop=-1;spacingLeft=3;spacingRight=3;rotatable=0;labelPosition=right;points=[];portConstraint=eastwest;" vertex="1" parent="R6EGx2aFgqs3BERjV3u7-152">
          <mxGeometry y="40" width="204" height="8" as="geometry" />
        </mxCell>
        <mxCell id="R6EGx2aFgqs3BERjV3u7-154" value="&lt;div align=&quot;center&quot;&gt;&lt;b&gt;CONNECTION,&lt;/b&gt;&lt;/div&gt;&lt;div align=&quot;center&quot;&gt;&lt;b&gt;TIMEOUT,&lt;/b&gt;&lt;/div&gt;&lt;div align=&quot;center&quot;&gt;&lt;b&gt;PERMISSION,&lt;/b&gt;&lt;/div&gt;&lt;div align=&quot;center&quot;&gt;&lt;b&gt;AUTHENTICATION&lt;/b&gt;&lt;/div&gt;" style="text;html=1;strokeColor=none;fillColor=none;align=center;verticalAlign=middle;spacingLeft=4;spacingRight=4;overflow=hidden;rotatable=0;points=[[0,0.5],[1,0.5]];portConstraint=eastwest;whiteSpace=wrap;" vertex="1" parent="R6EGx2aFgqs3BERjV3u7-152">
          <mxGeometry y="48" width="204" height="72" as="geometry" />
        </mxCell>
        <mxCell id="R6EGx2aFgqs3BERjV3u7-159" style="edgeStyle=orthogonalEdgeStyle;rounded=0;orthogonalLoop=1;jettySize=auto;html=1;endArrow=block;endFill=0;" edge="1" parent="1" source="R6EGx2aFgqs3BERjV3u7-156" target="R6EGx2aFgqs3BERjV3u7-152">
          <mxGeometry relative="1" as="geometry" />
        </mxCell>
        <mxCell id="R6EGx2aFgqs3BERjV3u7-156" value="&amp;lt;&amp;lt;interface&amp;gt;&amp;gt;&lt;br&gt;&lt;b&gt;UpdateEmailError&lt;/b&gt;&lt;div&gt;&lt;br&gt;&lt;/div&gt;" style="swimlane;fontStyle=0;align=center;verticalAlign=top;childLayout=stackLayout;horizontal=1;startSize=40;horizontalStack=0;resizeParent=1;resizeParentMax=0;resizeLast=0;collapsible=0;marginBottom=0;html=1;whiteSpace=wrap;" vertex="1" parent="1">
          <mxGeometry x="30" y="530" width="204" height="68" as="geometry" />
        </mxCell>
        <mxCell id="R6EGx2aFgqs3BERjV3u7-157" value="" style="line;strokeWidth=1;fillColor=none;align=left;verticalAlign=middle;spacingTop=-1;spacingLeft=3;spacingRight=3;rotatable=0;labelPosition=right;points=[];portConstraint=eastwest;" vertex="1" parent="R6EGx2aFgqs3BERjV3u7-156">
          <mxGeometry y="40" width="204" height="8" as="geometry" />
        </mxCell>
        <mxCell id="R6EGx2aFgqs3BERjV3u7-158" value="&lt;b&gt;EMAIL_USED&lt;/b&gt;" style="text;html=1;strokeColor=none;fillColor=none;align=center;verticalAlign=middle;spacingLeft=4;spacingRight=4;overflow=hidden;rotatable=0;points=[[0,0.5],[1,0.5]];portConstraint=eastwest;whiteSpace=wrap;" vertex="1" parent="R6EGx2aFgqs3BERjV3u7-156">
          <mxGeometry y="48" width="204" height="20" as="geometry" />
        </mxCell>
      </root>
    </mxGraphModel>
  </diagram>
</mxfile>
